<svg width="100" height="125" viewBox="0 0 100 125" fill="none" xmlns="http://www.w3.org/2000/svg">
<path fill-rule="evenodd" clip-rule="evenodd" d="M50 93.3334C29.6204 93.3334 20 73.3334 20 53.3334C20 38.1704 27.6977 13.3334 50 13.3334C68.969 13.3334 80 31.7611 80 53.3334C80 75.3144 70.3796 93.3334 50 93.3334ZM50 86.6667C63.2032 86.6667 73.3333 73.1382 73.3333 53.3334C73.3333 33.5286 63.2032 20 50 20C36.7968 20 26.6667 33.5286 26.6667 53.3334C26.6667 73.1382 36.7968 86.6667 50 86.6667Z" fill="black"/>
<path d="M53.3333 70C58.8562 70 63.3333 64.0305 63.3333 56.6667C63.3333 49.3029 58.8562 43.3334 53.3333 43.3334C47.8105 43.3334 43.3333 49.3029 43.3333 56.6667C43.3333 64.0305 47.8105 70 53.3333 70Z" fill="black"/>
<path fill-rule="evenodd" clip-rule="evenodd" d="M30.9844 62.6553C30.3455 59.721 30 56.5877 30 53.3334C30 36.7648 38.9543 23.3334 50 23.3334C57.7927 23.3334 64.5444 30.0185 67.8454 39.774C53.4948 43.9013 40.7989 51.9373 30.9844 62.6553ZM43.3333 50C47.0152 50 50 46.2691 50 41.6667C50 37.0643 47.0152 33.3334 43.3333 33.3334C39.6514 33.3334 36.6667 37.0643 36.6667 41.6667C36.6667 46.2691 39.6514 50 43.3333 50Z" fill="black"/>
<path d="M53.3333 70C58.8562 70 63.3333 64.0305 63.3333 56.6667C63.3333 49.3029 58.8562 43.3334 53.3333 43.3334C47.8105 43.3334 43.3333 49.3029 43.3333 56.6667C43.3333 64.0305 47.8105 70 53.3333 70Z" fill="black"/>
<path d="M48.3335 3.33334C29.1021 3.33334 15.4026 17.7691 10.0742 42.6349C9.68845 44.435 10.835 46.207 12.6351 46.5927C14.4352 46.9784 16.2071 45.8319 16.5929 44.0318C21.3238 21.9539 32.668 10 48.3335 10C50.1745 10 51.6669 8.50762 51.6669 6.66667C51.6669 4.82572 50.1745 3.33334 48.3335 3.33334Z" fill="black"/>
</svg>
