<svg width="67" height="66" viewBox="0 0 67 66" fill="none" xmlns="http://www.w3.org/2000/svg">
<path d="M34.7805 0.5C17.266 0.5 3.06137 14.7046 3.06137 32.2191C3.06137 37.8734 4.57837 43.1139 7.12969 47.7339L1.1996 62.1454C0.234233 64.4209 2.57869 66.6963 4.85419 65.7999L19.2657 59.9388C23.8856 62.4901 29.1262 64.0071 34.7805 64.0071C52.2949 64.0071 66.4995 49.8025 66.4995 32.288C66.4995 14.7736 52.2949 0.5 34.7805 0.5ZM25.0579 18.1524C27.885 18.1524 30.1605 20.4279 30.1605 23.255C30.1605 26.0821 27.885 28.3576 25.0579 28.3576C22.2307 28.3576 19.9552 26.0821 19.9552 23.255C19.9552 20.4279 22.2307 18.1524 25.0579 18.1524ZM47.1233 40.2868C45.6063 45.8031 40.5037 49.7335 34.7805 49.7335C29.0572 49.7335 23.8856 45.8721 22.4376 40.2868C21.9549 38.4939 22.9892 36.6322 24.782 36.1495C26.5749 35.6668 28.4366 36.7011 28.9193 38.4939C29.6089 41.1142 32.0223 42.907 34.7805 42.907C37.5386 42.907 39.952 41.1142 40.6416 38.4939C41.1243 36.7011 42.986 35.6668 44.7789 36.1495C46.5717 36.7011 47.606 38.4939 47.1233 40.2868ZM44.4341 28.3576C41.607 28.3576 39.3315 26.0821 39.3315 23.255C39.3315 20.4279 41.607 18.1524 44.4341 18.1524C47.2612 18.1524 49.5367 20.4279 49.5367 23.255C49.6057 26.0821 47.2612 28.3576 44.4341 28.3576Z" fill="black"/>
</svg>
