<svg width="92" height="95" viewBox="0 0 92 95" fill="none" xmlns="http://www.w3.org/2000/svg">
<path d="M76.5262 59.7551L77.6841 74.2814L80.842 76.7025L83.9999 74.2814L85.1578 54.1761C80.7368 55.2288 76.5262 59.7551 76.5262 59.7551Z" fill="black"/>
<path d="M13.4737 78.2814L16.5263 80.2814L19.5789 79.4393L20.6315 65.9656L12.421 62.913L13.4737 78.2814Z" fill="black"/>
<path d="M34.6316 71.2287L32.5263 70.5972V79.5445L27.3684 80.3866C26.8421 80.4919 26.7368 81.2288 27.2631 81.4393L30.1052 82.4919C30.2105 82.4919 30.3158 82.4919 30.421 82.4919L34.5263 81.0182V71.2287H34.6316Z" fill="black"/>
<path d="M37.1578 81.3341L32.9473 83.3341C32.4209 83.4393 32.3157 84.1762 32.842 84.3867L35.2631 85.5446C35.3683 85.5446 35.4736 85.5446 35.5788 85.5446L39.2631 82.8078V73.0183L37.1578 72.3867V81.3341Z" fill="black"/>
<path d="M86.2105 29.9655C81.3684 28.9129 73.5789 27.755 63.7895 27.755C74.4211 24.3866 75.1579 13.1234 71.1579 10.8077C66.7368 8.17607 67.3684 8.80765 65.1579 3.43923C63.4737 -0.666032 56.1053 -0.139716 52.7368 0.281337C51.6842 0.3866 50.7368 0.912915 50 1.64976L21.5789 31.9656C19.1579 32.2813 17.2632 32.5971 16 32.7024C14.8421 32.9129 14 33.6498 13.6842 34.7024C12.9474 37.2287 11.1579 41.5445 7.36842 41.9656L3.78947 41.755C1.78947 41.6498 0 43.334 0 45.334V56.2813L39.2632 70.7024L45.2632 69.334C45.2632 69.334 48.9474 69.2287 49.2632 71.334L50.7368 92.0708L53.8947 94.3866L58.1053 92.3866L59.5789 71.334C59.6842 69.5445 61.2632 67.8603 62.6316 66.7024C63.3684 66.0708 64.2105 65.4392 64.9474 64.9129C68.5263 64.0708 71.6842 62.1761 74.2105 59.5445C76.6316 56.9129 80.5263 53.6498 85.5789 51.4392C89.4737 49.755 92 45.9655 92 41.6498V36.8077C91.7895 33.4392 89.4737 30.5971 86.2105 29.9655ZM10.1053 51.4392V53.4392L5.68421 51.755V50.5971C5.68421 48.9129 7.68421 48.9129 9.36842 48.9129L12.6316 50.0708L10.9474 50.4919C10.4211 50.5971 10.1053 51.0182 10.1053 51.4392ZM16.2105 54.5971V55.755L12.1053 54.1761C12.1053 54.1761 12.1053 54.1761 12.1053 54.0708V52.1761L16.4211 51.334L20.5263 52.8077L17.0526 53.6498C16.6316 53.755 16.2105 54.1761 16.2105 54.5971ZM22.6316 56.9129V58.1761L18.3158 56.5971V55.5445L24.1053 54.1761L27.1579 55.2287L23.4737 55.9656C22.9474 55.9656 22.6316 56.3866 22.6316 56.9129ZM24.6316 57.755L30 56.7024C30.2105 56.7024 30.4211 56.5971 30.5263 56.3866L34.4211 57.755L30.2105 58.5971C29.6842 58.7024 29.3684 59.1234 29.3684 59.5445V60.7024L24.6316 58.9129V57.755ZM36.2105 61.4392V63.2287L31.4737 61.4392V60.3866L38.2105 59.1234L39.5789 59.5445C38.3158 60.1761 36.2105 60.0708 36.2105 61.4392ZM77.0526 36.0708C74.6316 36.4919 72.8421 37.4392 71.7895 38.2813C70.6316 39.1234 69.3684 39.755 68 39.9655L65.6842 40.1761L64.6316 37.8603L64.4211 37.4392L53.7895 11.755C53.5789 11.1234 52.9474 10.7024 52.2105 10.7024C52.1053 10.7024 51.8947 10.7024 51.7895 10.8077C50.8421 11.0182 50.4211 12.0708 50.7368 12.9129L60.1053 37.755L61.1579 40.8077L51.2632 41.8603L28.1053 35.5445C38.9474 33.6498 48.2105 32.5971 55.7895 32.0708L48.8421 13.6498C48.5263 12.5971 48.5263 11.5445 49.0526 10.7024C49.4737 9.86028 50.3158 9.12344 51.2632 8.91292C51.5789 8.80765 51.8947 8.80765 52.2105 8.80765C53.6842 8.80765 55.0526 9.75502 55.5789 11.1234L64.2105 31.5445C70 31.334 74.4211 31.4392 77.0526 31.6498C83.7895 32.3866 81.3684 35.334 77.0526 36.0708Z" fill="black"/>
</svg>
