<svg width="105" height="80" viewBox="0 0 105 80" fill="none" xmlns="http://www.w3.org/2000/svg">
<path d="M42.9765 0C44.6825 0.0525 45.5724 1.66457 46.6058 2.68466C48.2967 4.606 50.3983 6.20249 52.5221 6.31402C55.1021 6.05406 56.7804 4.30134 58.4384 2.68466C59.5344 1.44025 60.6426 0.141432 62.0677 0C63.5763 0 65.7769 1.46588 68.0336 4.52424C70.2903 7.58245 72.5424 12.004 74.4968 16.953C77.1682 23.7182 79.2584 31.4734 80.3136 38.3807C60.1761 47.3354 43.3381 47.6403 24.7306 38.3807C25.7858 31.4734 27.876 23.7182 30.5474 16.953C32.5018 12.004 34.7539 7.58245 37.0106 4.52424C39.2673 1.46572 41.4679 0 42.9765 0ZM7.23042 28.6364C13.167 28.9956 17.563 30.0909 22.742 31.4205C21.4512 37.1249 20.7036 42.7016 20.7036 47.3792C20.7163 47.9226 21.0282 48.4499 21.499 48.7216C41.0546 60.0501 63.9896 60.0501 83.5452 48.7216C84.016 48.4499 84.3285 47.9226 84.3406 47.3792C84.3406 42.8778 83.6544 37.5452 82.4514 32.0667C87.5936 30.8848 92.955 28.9126 98.1121 28.7856C100.473 28.6711 102.225 29.3206 103.233 31.0227C107.748 43.0184 103.282 54.904 93.5879 64.0837C83.8689 73.2871 68.9247 79.5455 53.2679 79.5455C37.611 79.5455 22.2759 73.3018 12.1523 64.0837C2.07108 54.905 -2.802 43.0211 1.66217 31.0723C2.55547 29.3103 4.19342 28.6758 7.23042 28.6364ZM80.7113 41.6619C80.89 43.3252 81.0292 44.9502 81.0593 46.4347C62.9301 56.5559 42.1141 56.5559 23.9849 46.4347C24.0148 44.9648 24.1574 43.3571 24.3329 41.7117C43.0186 50.6926 60.706 50.3407 80.7113 41.6619Z" fill="black"/>
</svg>
