<svg width="113" height="110" viewBox="0 0 113 110" fill="none" xmlns="http://www.w3.org/2000/svg">
<path d="M19.6282 44.3969L14.7466 45.7577L19.6282 47.1412C21.7865 47.7309 23.4815 49.4546 24.103 51.6206L25.459 56.5196L26.815 51.6206C27.4026 49.4546 29.1202 47.7309 31.2785 47.1412L36.1601 45.7577L31.2785 44.3969C29.1202 43.8072 27.4026 42.0835 26.815 39.9175L25.459 35.0186L24.103 39.9175C23.4815 42.0835 21.7639 43.8072 19.6282 44.3969Z" fill="#000"/>
<path d="M61.0088 11.9072C60.5003 11.9072 60.0935 12.3155 60.0935 12.8258V37.5361C57.777 37.5928 55.4605 37.8423 53.1779 38.3526V44.0454C55.7091 43.3536 58.3081 43.0134 60.941 42.9907H61.0879C63.7208 43.0134 66.3198 43.365 68.851 44.0454V38.3526C66.5797 37.8423 64.2632 37.5928 61.9354 37.5361V12.8258C61.9241 12.3155 61.5173 11.9072 61.0088 11.9072Z" fill="#000"/>
<path d="M88.0157 86.1402C88.1626 86.1856 88.2643 86.2877 88.3321 86.3897C89.044 87.0588 89.609 87.8639 89.8576 88.8279L90.7164 91.9124L91.5752 88.8279C92.0385 87.0815 93.4397 85.698 95.1799 85.2103L98.2535 84.3712L95.1799 83.5093C93.4397 83.0444 92.0385 81.6382 91.5752 79.8918L90.7164 76.8073L89.8576 79.8918C89.3943 81.6382 87.9931 83.0217 86.2529 83.5093L83.1793 84.3712L86.2529 85.2103C86.9196 85.4031 87.4846 85.732 87.9931 86.1176C87.9931 86.1402 87.9931 86.1402 88.0157 86.1402Z" fill="#000"/>
<path d="M69.5063 46.1206C68.6249 45.8484 67.7096 45.633 66.783 45.4515C69.5628 47.9124 71.8906 52.199 73.4839 57.8917H85.0551C81.36 52.2557 75.9134 48.0938 69.5063 46.1206Z" fill="#000"/>
<path d="M61.0539 44.8392H60.9522C56.7825 44.8846 52.8275 49.8629 50.4658 57.9032H55.031L57.1215 50.3392L59.212 57.9032H71.5403C69.1786 49.8629 65.2349 44.8959 61.0539 44.8392Z" fill="#000"/>
<path d="M51.2568 69.9237L48.477 69.1299C48.3753 70.434 48.3301 71.6474 48.3075 72.8041H54.1496C53.7654 71.4093 52.658 70.2979 51.2568 69.9237Z" fill="#000"/>
<path d="M48.9968 64.6051L51.2568 63.9587C52.658 63.5618 53.7654 62.4504 54.1496 61.0556L54.5225 59.7515H49.9573C49.5618 61.3278 49.2454 62.9494 48.9968 64.6051Z" fill="#000"/>
<path d="M62.9975 63.9588L73.3144 66.8392C73.0432 64.3557 72.6251 61.9856 72.0601 59.7402H59.7318L60.1047 61.0444C60.4663 62.4619 61.5963 63.5732 62.9975 63.9588Z" fill="#000"/>
<path d="M89.7558 72.8154C89.5863 68.2113 88.3546 63.7205 86.1737 59.7515H73.9471C74.9302 63.7659 75.4726 68.2339 75.5178 72.8154H89.7558Z" fill="#000"/>
<path d="M73.3369 67.0433L62.9974 69.9237C61.5962 70.298 60.4888 71.398 60.1046 72.8042H73.6759C73.6533 70.865 73.529 68.9145 73.3369 67.0433Z" fill="#000"/>
<path d="M55.9463 72.3392L57.1215 76.6258L58.0029 73.4505C58.0029 73.4278 58.0029 73.3711 58.0255 73.3485L58.2967 72.3392C58.8617 70.298 60.455 68.6876 62.5003 68.1206L66.7717 66.9412L62.5003 65.7619C60.4663 65.1949 58.8617 63.5732 58.2967 61.5433L57.6526 59.2072C57.63 59.1619 57.63 59.1278 57.63 59.1052L57.1102 57.2567L55.935 61.5433C55.37 63.5619 53.7541 65.1949 51.7314 65.7619L48.1493 66.7485C48.1267 66.7485 48.1041 66.7711 48.1041 66.7711L47.4374 66.9412L51.7314 68.1206C53.7654 68.699 55.3813 70.298 55.9463 72.3392Z" fill="#000"/>
<path d="M86.4223 87.2742C86.2302 87.1495 86.0042 87.0474 85.7556 87.0021L76.2975 84.3598L85.7556 81.7175C86.8856 81.4 87.767 80.5155 88.0834 79.3815L89.3829 74.6526H75.5178C75.4726 79.234 74.9302 83.7021 73.9471 87.7165H86.1737C86.2754 87.5691 86.3432 87.4217 86.4223 87.2742Z" fill="#000"/>
<path d="M85.0212 89.5649H73.4839C71.8906 95.2124 69.5741 99.4763 66.8282 101.96C74.241 100.406 80.795 95.9722 85.0212 89.5649Z" fill="#000"/>
<path d="M72.0601 87.7165C73.0658 83.7247 73.6308 79.2681 73.676 74.6526H59.5849L57.1328 83.5433L54.6807 74.6526H48.3414C48.3866 79.2567 48.9516 83.7247 49.9573 87.7165H72.0601Z" fill="#000"/>
<path d="M61.0088 102.629C65.2124 102.629 69.19 97.6278 71.5404 89.5649H50.4772C52.8276 97.6278 56.8052 102.629 61.0088 102.629Z" fill="#000"/>
<path d="M55.1892 101.96C52.4433 99.4763 50.1268 95.2124 48.5335 89.5649H36.9962C41.2111 95.9722 47.7651 100.406 55.1892 101.96Z" fill="#000"/>
<path d="M35.8323 87.7165H48.0589C47.0758 83.7021 46.5334 79.234 46.4882 74.6526H32.2728C32.4197 79.2454 33.6288 83.7247 35.8323 87.7165Z" fill="#000"/>
<path d="M48.0702 59.7515H35.8323C33.6175 63.7432 32.4197 68.2339 32.2728 72.8154H46.4656C46.4882 71.5113 46.5673 70.1278 46.6577 68.6535L40.567 66.9525L47.0532 65.1494C47.2792 63.3236 47.6182 61.4979 48.0702 59.7515Z" fill="#000"/>
<path d="M36.9623 57.9031H48.5335C50.1268 52.233 52.4659 47.9237 55.2344 45.4629C54.3304 45.633 53.4151 45.8598 52.5111 46.132C46.104 48.0938 40.6461 52.2557 36.9623 57.9031Z" fill="#000"/>
</svg>
