<svg width="90" height="90" viewBox="0 0 90 90" fill="none" xmlns="http://www.w3.org/2000/svg">
<path d="M83.641 61.721C83.258 61.385 67.964 54.035 64.002 52.362C63.153 57.098 47.24 76.542 47.24 76.542C48.999 77.347 50.223 79.118 50.223 81.179C50.223 83.997 47.939 86.281 45.121 86.281C42.303 86.281 40.019 83.997 40.019 81.179C40.019 79.189 41.161 77.469 42.824 76.628C42.824 76.628 26.5 57.385 25.485 52.706C21.231 54.618 7.21898 61.609 6.95298 61.868C4.38198 64.372 0.664978 84.597 0.664978 86.769C0.664978 88.195 1.82598 89.356 3.25198 89.356H86.748C88.175 89.356 89.335 88.195 89.335 86.769C89.336 85.937 86.753 64.454 83.641 61.721ZM18.504 87.116H3.25198C3.05998 87.116 2.90298 86.96 2.90298 86.768C2.90298 83.995 6.82698 65.114 8.49198 63.492C8.58998 63.411 9.10598 63.063 11.689 61.802C14.772 65.589 17.037 70.584 18.101 75.966C18.845 79.735 18.982 83.569 18.504 87.116ZM86.748 87.116H71.496C71.018 83.568 71.156 79.735 71.9 75.966C72.997 70.414 75.356 65.306 78.575 61.481C81.334 62.8 82.003 63.261 82.164 63.402C84.182 65.174 87.097 84.566 87.097 86.767C87.097 86.96 86.941 87.116 86.748 87.116ZM45.068 67.81C47.942 67.81 50.689 67.161 53.165 66.018L45.702 76.112C45.511 76.09 44.583 76.104 44.322 76.145L36.851 66.041C39.387 67.168 42.178 67.81 45.068 67.81ZM25.089 26.298C25.146 27.074 25.317 28.588 25.327 28.68C24.283 29.703 23.72 31.112 23.725 32.732C23.731 34.857 24.751 37.267 26.126 38.544C26.991 41.833 28.841 46.225 31.699 49.926C31.035 50.222 30.366 50.52 29.695 50.82C30.594 57.537 37.516 63.334 45.069 63.334C52.621 63.334 59.055 57.604 59.731 50.571C59.035 50.281 58.392 50.013 57.829 49.78C60.666 46.059 62.624 41.67 63.437 38.488C64.643 37.291 65.524 35.084 65.601 32.946C65.664 31.197 65.178 29.668 64.222 28.552C65.328 19.033 63.603 11.16 59.353 6.35502C56 2.56602 51.157 0.64502 44.96 0.64502C34.115 0.64502 27.664 4.64702 25.743 12.53C18.046 12.53 15.854 17.151 17.207 21.674C18.275 25.25 22.837 26.118 25.089 26.298ZM62.515 32.835C62.515 34.602 61.609 36.065 61.155 36.388C60.846 36.608 60.63 36.935 60.546 37.305C59.801 40.594 55.167 53.828 45.069 53.828C34.399 53.828 29.82 40.722 29 37.313C28.911 36.941 28.686 36.616 28.371 36.399C27.754 35.977 26.813 34.295 26.813 32.723C26.813 31.025 28.054 30.419 28.148 30.3H29.259C29.172 30.86 28.352 37.342 34.285 37.342C42.485 37.342 44.193 31.827 44.211 30.3H45.629C45.647 31.827 46.784 37.342 54.983 37.342C60.916 37.342 60.668 30.86 60.581 30.3H61.611C61.616 30.304 62.515 31.188 62.515 32.835ZM61.409 25.112C61.354 26.214 61.113 28.537 61.112 28.551H60.104C59.074 26.054 56.966 25.587 55.555 25.587H50.791C48.391 25.587 46.608 26.728 45.93 28.551H43.911C43.234 26.728 41.45 25.587 39.05 25.587H34.286C32.874 25.587 30.767 26.055 29.737 28.551H28.417C28.401 28.39 28.15 26.114 28.124 25.112H61.409ZM21.049 17.108C28.375 11.633 55.458 20.704 61.291 23.363H27.137C19.072 23.363 19.119 18.551 21.049 17.108Z" fill="black"/>
</svg>
