<svg width="92" height="90" viewBox="0 0 92 90" fill="none" xmlns="http://www.w3.org/2000/svg">
<g clip-path="url(#clip0_112_82)">
<path d="M70.7391 35.3611L69.3979 31.1841L69.1759 30.4917C68.1668 31.084 66.8004 31.7719 65.1056 32.3308C63.2864 32.9312 61.6747 33.1891 60.4583 33.3027L60.6804 33.9947L60.7407 34.1825L45.9751 38.3113C45.1186 35.8202 42.428 34.4594 39.9132 35.2702L38.7697 35.6389C31.1504 38.0963 27.3644 34.2579 23.2276 38.2151C20.3169 41.0075 20.8527 46.1374 21.7497 48.9523C21.8956 49.4295 24.0261 55.8632 28.7577 56.6867C31.1662 57.1101 33.5387 56.0792 35.4027 54.2926C38.9745 50.8585 42.3869 49.9207 44.4085 49.2689C46.9222 48.4583 48.3154 45.7826 47.5638 43.2592L61.9616 37.9838L62.0219 38.1717L62.2442 38.8641C63.2983 38.2451 64.7575 37.5131 66.5851 36.9374C68.2871 36.4012 69.797 36.1611 70.9616 36.0527L70.7391 35.3611ZM29.593 50.8925C29.3007 50.9867 28.9763 50.8255 28.8802 50.5259L26.6137 43.4678C26.5175 43.1683 26.6871 42.8477 26.9795 42.7536C27.2783 42.6572 27.5961 42.8204 27.6923 43.1198L29.959 50.1779C30.0549 50.4774 29.8917 50.7962 29.593 50.8925ZM38.364 47.8843C36.1679 48.5924 33.8149 47.3828 33.108 45.1819C31.4139 39.9072 39.3732 37.3405 41.0673 42.6154C41.7738 44.8161 40.5604 47.1762 38.364 47.8843Z" fill="black"/>
<path d="M36.0877 40.7954C34.3723 41.3488 33.4295 43.1903 33.9813 44.9092C34.5333 46.6282 36.3711 47.5732 38.0865 47.0203C39.8018 46.4673 40.7449 44.6254 40.1928 42.9065C39.6409 41.1874 37.803 40.2428 36.0877 40.7954ZM37.8504 46.2847C36.5378 46.7077 35.1381 45.9882 34.7158 44.6728C34.2935 43.3577 35.0097 41.9482 36.3221 41.5251C37.6348 41.1019 39.0429 41.8258 39.4656 43.1412C39.8877 44.4565 39.1629 45.8614 37.8504 46.2847Z" fill="black"/>
<path d="M41.3558 23.1847C45.6717 23.1847 49.1705 19.6785 49.1705 15.3535C49.1705 11.0284 45.6717 7.52222 41.3558 7.52222C37.0399 7.52222 33.5411 11.0284 33.5411 15.3535C33.5411 19.6785 37.0399 23.1847 41.3558 23.1847Z" fill="black"/>
<path d="M31.7977 32.5093V34.5446C36.9429 34.8481 38.8591 33.0625 41.4007 33.0625C43.6486 33.0625 45.7192 34.189 46.981 35.9869L56.446 33.3391C51.9141 27.1854 51.6607 26.2843 49.8205 25.7312C49.3079 25.4743 48.736 25.336 48.1248 25.336H36.6485L32.2515 18.1435V5.79322C32.2515 3.61945 30.4965 1.84119 28.3078 1.84119C26.1386 1.84119 24.3641 3.61963 24.3641 5.79322V19.2699C24.3641 20.001 24.5811 20.7124 24.9557 21.325L31.7977 32.5093Z" fill="black"/>
<path d="M52.0686 56.3801V43.7136L49.7418 44.5633C49.7615 47.4877 47.8881 50.2149 45.0093 51.1436L43.5895 51.5982C41.0853 52.4084 38.7189 53.8311 36.7668 55.7279C35.2091 57.2101 33.4147 58.198 31.5808 58.5735L22.4115 85.112C21.7016 87.167 22.8058 89.4197 24.8567 90.1311C26.8056 90.8416 29.1413 89.813 29.8849 87.6807L39.5274 59.7196H44.9303L56.6235 86.3371C57.4911 88.3327 59.818 89.2418 61.8096 88.3724C63.8012 87.4831 64.7081 85.1515 63.8406 83.1556L52.0686 56.3801Z" fill="black"/>
<path d="M62.2041 41.1843L61.1194 41.8166L60.7054 40.5519L53.804 43.0813L59.0097 50.1557C60.2495 51.8439 62.6869 52.32 64.531 50.9856C66.2858 49.6814 66.6606 47.2113 65.3592 45.4526L62.2041 41.1843Z" fill="black"/>
</g>
<defs>
<clipPath id="clip0_112_82">
<rect width="92" height="90" fill="black"/>
</clipPath>
</defs>
</svg>
