<svg width="88" height="88" viewBox="0 0 88 88" fill="none" xmlns="http://www.w3.org/2000/svg">
<path d="M71.8667 85.0667V85.008C74.9122 84.7573 77.8398 83.7167 80.3605 81.9892C82.8812 80.2616 84.9079 77.9066 86.2406 75.1566C87.5733 72.4066 88.1659 69.3567 87.9601 66.3078C87.7542 63.2588 86.7569 60.3162 85.0666 57.7704V42.5333C85.0651 41.6257 84.7821 40.7408 84.2568 40.0006C83.7315 39.2604 82.9896 38.7013 82.1333 38.4003V29.2453C82.8742 28.5999 83.3777 27.725 83.5638 26.7602C83.7498 25.7954 83.6077 24.796 83.16 23.9213C79.4689 16.7143 73.859 10.6667 66.9489 6.44561C60.0389 2.22454 52.0973 -0.00600176 44 1.21287e-05C35.9058 0.00860757 27.9702 2.2452 21.0627 6.46467C14.1553 10.6842 8.54274 16.7237 4.84006 23.9213C4.39235 24.796 4.25021 25.7954 4.43626 26.7602C4.62232 27.725 5.12587 28.5999 5.86672 29.2453V38.4036C5.01127 38.7049 4.27006 39.2636 3.74485 40.0031C3.21964 40.7425 2.93618 41.6264 2.93339 42.5333V57.7703C1.2431 60.3162 0.245809 63.2588 0.0399346 66.3077C-0.16594 69.3567 0.426715 72.4066 1.75942 75.1566C3.09212 77.9066 5.11881 80.2616 7.63951 81.9892C10.1602 83.7168 13.0878 84.7573 16.1334 85.008V85.0667C16.1357 85.8439 16.4454 86.5887 16.9951 87.1383C17.5447 87.6879 18.2894 87.9977 19.0667 88H22C22.7705 88.0002 23.5335 87.8486 24.2454 87.5539C24.9572 87.2591 25.6041 86.827 26.1489 86.2822C26.6937 85.7373 27.1258 85.0905 27.4206 84.3787C27.7153 83.6668 27.8669 82.9038 27.8667 82.1333V52.8C27.8669 52.0295 27.7153 51.2665 27.4206 50.5547C27.1258 49.8428 26.6937 49.196 26.1489 48.6512C25.6041 48.1063 24.9572 47.6742 24.2454 47.3795C23.5335 47.0847 22.7705 46.9331 22 46.9333H19.0667C18.2894 46.9356 17.5447 47.2454 16.995 47.795C16.4454 48.3446 16.1356 49.0894 16.1334 49.8667V49.9253C14.6313 50.0544 13.1523 50.3776 11.7334 50.887V42.5333C11.7318 41.6257 11.4489 40.7408 10.9235 40.0006C10.3982 39.2604 9.65633 38.7013 8.80005 38.4003V30.3307C9.60213 30.3233 10.3869 30.0967 11.0694 29.6753C11.7519 29.2539 12.3061 28.6538 12.672 27.94C13.5133 26.3209 14.4742 24.7668 15.5467 23.2907V23.276C22.7774 17.8053 33.1467 14.6667 44 14.6667C54.8533 14.6667 65.2227 17.8053 72.4533 23.276V23.2907C73.5263 24.7636 74.4826 26.3181 75.3133 27.94C75.6823 28.6544 76.2393 29.2546 76.9242 29.6759C77.6091 30.0972 78.3959 30.3236 79.2 30.3307V38.4036C78.3445 38.7049 77.6033 39.2637 77.0781 40.0031C76.5529 40.7425 76.2694 41.6264 76.2667 42.5333V50.887C74.8477 50.3776 73.3687 50.0543 71.8667 49.9253V49.8667C71.8644 49.0894 71.5546 48.3446 71.005 47.795C70.4554 47.2454 69.7106 46.9356 68.9333 46.9333H66C65.2295 46.9331 64.4665 47.0847 63.7547 47.3795C63.0428 47.6742 62.396 48.1063 61.8512 48.6512C61.3063 49.196 60.8742 49.8428 60.5795 50.5547C60.2847 51.2665 60.1331 52.0295 60.1333 52.8V82.1333C60.1331 82.9038 60.2847 83.6668 60.5795 84.3787C60.8742 85.0905 61.3064 85.7373 61.8512 86.2822C62.396 86.827 63.0428 87.2591 63.7547 87.5539C64.4665 87.8486 65.2295 88.0002 66 88H68.9333C69.7106 87.9977 70.4554 87.6879 71.005 87.1383C71.5546 86.5887 71.8644 85.8439 71.8667 85.0667ZM8.82726 52.23C7.7696 52.8367 6.77748 53.5511 5.86672 54.3617V42.5333C5.86699 42.1444 6.02159 41.7715 6.29659 41.4965C6.57159 41.2215 6.94448 41.0669 7.33339 41.0667C7.52914 41.0663 7.7229 41.106 7.90272 41.1833C8.08254 41.2607 8.24462 41.374 8.37896 41.5164C8.51389 41.6489 8.62072 41.8073 8.69307 41.982C8.76542 42.1567 8.8018 42.3442 8.80005 42.5333V52.0953C8.80685 52.1407 8.81593 52.1856 8.82726 52.23ZM44 11.7333C36.8424 11.7003 29.7458 13.0499 23.1 15.708C25.3262 14.0379 27.7498 12.6487 30.316 11.572C35.9499 9.18967 42.108 8.31945 48.1814 9.04743C54.2547 9.7754 60.0328 12.0764 64.944 15.7227C58.2858 13.0527 51.1735 11.698 44 11.7333ZM79.2 42.5333C79.2003 42.1444 79.3549 41.7715 79.6299 41.4965C79.9048 41.2215 80.2777 41.0669 80.6667 41.0667C80.8624 41.0663 81.0562 41.106 81.236 41.1833C81.4158 41.2607 81.5779 41.374 81.7122 41.5164C81.8472 41.6489 81.954 41.8073 82.0263 41.982C82.0987 42.1567 82.1351 42.3442 82.1333 42.5333V54.3617C81.2304 53.5579 80.2475 52.8486 79.2 52.2452V42.5333Z" fill="black"/>
</svg>
