<svg width="100" height="107" viewBox="0 0 100 107" fill="none" xmlns="http://www.w3.org/2000/svg">
<path d="M68.4 41.53C65.4333 41.53 62.5332 40.6503 60.0664 39.0021C57.5997 37.3539 55.6771 35.0112 54.5418 32.2703C53.4065 29.5294 53.1094 26.5134 53.6882 23.6037C54.267 20.694 55.6956 18.0212 57.7934 15.9234C59.8912 13.8256 62.5639 12.397 65.4736 11.8183C68.3834 11.2395 71.3994 11.5365 74.1403 12.6718C76.8811 13.8072 79.2238 15.7297 80.872 18.1965C82.5203 20.6632 83.4 23.5633 83.4 26.53C83.4 28.4999 83.012 30.4504 82.2582 32.2703C81.5044 34.0902 80.3995 35.7438 79.0066 37.1366C77.6137 38.5295 75.9601 39.6344 74.1403 40.3882C72.3204 41.142 70.3698 41.53 68.4 41.53Z" fill="black"/>
<path d="M47.5 36.46C48.65 42.46 52.5 45.73 58.13 47.46C57.83 47.74 57.61 47.96 57.37 48.17C50.8833 53.7833 44.4 59.3933 37.92 65C37.7303 65.2034 37.4807 65.3412 37.2074 65.3934C36.9341 65.4455 36.6513 65.4093 36.4 65.29C34.4102 64.6486 32.633 63.4765 31.26 61.9C30.7074 61.1856 30.244 60.4065 29.88 59.58C29.5842 59.0444 29.4747 58.4256 29.5689 57.821C29.663 57.2165 29.9554 56.6603 30.4 56.24C35.97 49.93 41.4 43.5 46.92 37.12C47.07 36.92 47.23 36.76 47.5 36.46ZM42.17 55.54C42.4441 55.412 42.7053 55.2579 42.95 55.08C44.79 53.28 46.62 51.46 48.44 49.64C48.5642 49.5468 48.665 49.426 48.7344 49.2872C48.8039 49.1483 48.84 48.9952 48.84 48.84C48.84 48.6847 48.8039 48.5316 48.7344 48.3927C48.665 48.2539 48.5642 48.1331 48.44 48.04C47.87 47.43 47.28 46.83 46.67 46.26C46.5761 46.1485 46.459 46.0588 46.3269 45.9973C46.1947 45.9359 46.0507 45.904 45.905 45.904C45.7592 45.904 45.6153 45.9359 45.4831 45.9973C45.351 46.0588 45.2339 46.1485 45.14 46.26C43.2933 48.0866 41.4467 49.9233 39.6 51.77C39.4919 51.8638 39.4052 51.9798 39.3458 52.1101C39.2865 52.2403 39.2557 52.3818 39.2557 52.525C39.2557 52.6681 39.2865 52.8096 39.3458 52.9399C39.4052 53.0701 39.4919 53.1861 39.6 53.28C40.2 53.91 40.81 54.53 41.44 55.13C41.6698 55.2894 41.9142 55.4267 42.17 55.54Z" fill="black"/>
<path d="M27.78 65.63L29.49 67.16C29.0714 68.2274 28.7076 69.3155 28.4 70.42C28.062 71.8295 28.1592 73.3084 28.6787 74.6616C29.1982 76.0148 30.1156 77.1788 31.31 78C32.6028 78.6945 34.0671 79.0052 35.5305 78.8953C36.9939 78.7855 38.3954 78.2597 39.57 77.38C40.341 76.7075 41.1525 76.083 42 75.51C46.13 73.1 50.05 73.51 53.22 76.7C54.8001 78.1442 55.8191 80.1001 56.0972 82.2226C56.3753 84.345 55.8946 86.4975 54.74 88.3C53.8262 89.6611 52.8028 90.9454 51.68 92.14C51.5856 92.3025 51.4543 92.4405 51.2968 92.5429C51.1392 92.6454 50.9598 92.7094 50.773 92.7298C50.5862 92.7502 50.3972 92.7265 50.2213 92.6606C50.0453 92.5946 49.8873 92.4882 49.76 92.35C49.21 91.83 49.3 91.12 50.01 90.42C51.68 88.77 53.18 87.01 53.62 84.62C54.14 81.81 52.95 79.62 50.92 77.86C50.1291 77.1216 49.1381 76.6329 48.0708 76.4551C47.0036 76.2772 45.9076 76.418 44.92 76.86C43.7986 77.2879 42.7598 77.9071 41.85 78.69C40.312 80.0897 38.3857 80.99 36.3254 81.2721C34.265 81.5542 32.1676 81.2048 30.31 80.27C27.4 78.82 25.31 74.45 25.81 70.91C26.0774 69.0283 26.7495 67.227 27.78 65.63Z" fill="black"/>
<path d="M52.92 30.13C54.11 36.83 58.26 40.38 64.63 41.96C63.51 42.96 62.53 43.81 61.49 44.62C61.3469 44.6962 61.1898 44.7425 61.0282 44.7563C60.8666 44.77 60.704 44.7509 60.55 44.7C55.05 43.28 51.43 39.95 50.09 34.33C50.0026 33.9935 50.0454 33.6363 50.21 33.33C51 32.27 51.93 31.28 52.92 30.13Z" fill="black"/>
<path d="M35.24 65.91L32.43 66.91C30.52 67.57 29.36 66.31 28.14 65.22C28.0712 65.1634 28.0221 65.0863 28 65C27.89 63.19 27.85 61.39 29.14 59.73C30.38 62.59 32.69 64.24 35.24 65.91Z" fill="black"/>
<path d="M45 48.4399C45.42 49.0099 45.88 49.3699 45.85 49.6799C45.82 49.9899 45.32 50.2899 45.02 50.5899C44.72 50.2999 44.22 50.0299 44.18 49.6999C44.14 49.3699 44.6 48.9999 45 48.4399Z" fill="black"/>
</svg>
