<svg width="76" height="80" viewBox="0 0 76 94" fill="none" xmlns="http://www.w3.org/2000/svg">
<path d="M34.081 34.22C33.794 30.472 30.656 27.623 26.968 27.623C26.784 27.623 26.595 27.631 26.403 27.641H26.41C22.664 27.932 19.811 31.067 19.814 34.758C19.814 34.944 19.821 35.129 19.835 35.32L21.304 54.3C21.496 56.761 22.908 58.823 24.904 59.958C24.065 58.739 23.471 57.317 23.244 55.755C23.175 55.276 23.14 54.796 23.14 54.316C23.142 49.449 26.71 45.204 31.665 44.484L34.843 44.02L34.081 34.22Z" fill="black"/>
<path d="M51.41 32.871C51.125 29.128 47.985 26.277 44.298 26.277C44.112 26.277 43.927 26.287 43.741 26.305H43.734C39.992 26.588 37.143 29.725 37.143 33.417C37.143 33.607 37.15 33.788 37.165 33.981L37.905 43.576L52.08 41.518L51.409 32.876L51.41 32.871Z" fill="black"/>
<path d="M69.375 0.75903L68.272 0.54803C63.847 -0.30197 59.57 2.60203 58.724 7.02703L53.681 33.339L54.459 43.418L37.219 45.927L36.369 46.048L35.871 46.123L31.98 46.687C28.136 47.243 25.367 50.549 25.367 54.316C25.367 54.685 25.394 55.06 25.449 55.435C26.499 62.915 38.725 60.714 38.725 60.714L54.95 58.958L49.366 61.981C48.488 62.313 47.543 62.532 46.548 62.612H46.543C46.312 62.632 46.084 62.637 45.86 62.637C45.582 62.637 45.315 62.627 45.059 62.612H45.052L42.725 62.454L38.75 62.089L31.307 62.7L30.396 62.895C30 62.985 29.585 63.055 29.151 63.09C28.902 63.11 28.658 63.125 28.416 63.125C23.567 63.119 19.47 59.385 19.087 54.469L17.618 35.491C17.596 35.243 17.587 34.999 17.587 34.757C17.587 34.183 17.642 33.616 17.741 33.068L15.607 16.614C15.046 12.333 11.123 9.30903 6.842 9.87003C2.556 10.427 -0.459001 14.344 0.0969993 18.631C0.0969993 18.631 3.932 48.019 3.971 48.212C7.785 82.601 12.304 86.175 12.354 86.183C16.466 90.599 25.212 93.765 35.413 93.986C47.12 94.254 57.086 90.552 60.388 85.25L75.852 10.312C76.701 5.88403 73.8 1.60903 69.375 0.75903Z" fill="black"/>
</svg>
