<svg width="48" height="60" viewBox="0 0 48 81" fill="none" xmlns="http://www.w3.org/2000/svg">
<path d="M9.99048 21.7214C12.6064 19.9034 13.2699 16.285 11.4762 13.6494C9.66826 11.001 6.0889 10.3309 3.47302 12.1489C0.850802 13.9717 0.18731 17.5868 1.99525 20.2273C3.7889 22.8725 7.36826 23.5474 9.99048 21.7214Z" fill="black"/>
<path d="M31.3286 48.4976C29.9143 37.5383 23.4651 30.4058 22.019 28.9229L16.2397 29.4856C16.2238 29.4856 16.2095 29.4872 16.1921 29.4856C15.8079 29.5048 15.4746 29.2114 15.4397 28.8187C15.4016 28.4131 15.6952 28.0523 16.0984 28.0107L26.5968 26.9622C30.546 26.8532 30.2492 23.1803 30.2492 23.1803L29.946 10.7846C29.6635 7.03633 24.6429 7.29284 24.7778 11.0154L24.7016 21.3831L13.6444 21.3896C6.36667 22.0597 7.72857 29.1714 7.72857 29.1714C7.72857 29.1714 8.40159 33.4903 11.0159 37.2738C14.5667 42.3976 19.5778 47.6944 19.5778 47.6944L22.2571 45.6712C22.6222 46.9057 22.9381 48.1866 23.1175 49.5814C24.4381 59.7728 16.3127 71.6571 14.6714 73.94C13.3254 75.8029 13.7349 78.4193 15.5841 79.7788C16.319 80.3191 17.1714 80.5788 18.0159 80.5788C19.2952 80.5788 20.5556 79.984 21.3651 78.8586C24.1302 75.0238 33.0127 61.5026 31.3286 48.4976Z" fill="black"/>
<path d="M14.3826 15.6101L23.454 12.7084V15.0169L14.5619 17.986L14.3826 15.6101Z" fill="black"/>
<path d="M43.4413 0.0705566L41.3588 0.763128C41.3588 0.763128 42.3746 3.43241 41.3683 5.25202C40.4175 6.97383 38.0191 7.72732 38.0191 7.72732L31.3921 10.0375L31.4492 12.2483L38.7222 9.82587C38.7222 9.82587 41.381 8.92329 42.9667 9.55173C44.9175 10.3213 45.4397 13.1252 45.4397 13.1252L47.5238 12.4326L43.4413 0.0705566Z" fill="black"/>
<path d="M39.6238 14.2554C39.2127 13.0563 37.8492 12.0575 35.8175 12.7052L31.4984 14.1945L31.5317 15.5588L36.2206 13.9444C37.5063 13.5324 38.1905 14.055 38.4095 14.6835C38.6603 15.4177 38.3206 16.3893 37.2048 16.8173L31.6143 18.7459L31.6476 20.1086L37.6413 18.0421C39.5286 17.3207 40.0683 15.554 39.6238 14.2554Z" fill="black"/>
</svg>
