<svg width="84" height="90" viewBox="0 0 84 90" fill="none" xmlns="http://www.w3.org/2000/svg">
<path d="M59.304 28.5981L62.244 28.9345C62.832 29.0186 63.42 28.5981 63.42 27.9252L64.344 19.9345L65.688 20.9439C67.032 21.8691 67.788 23.3831 67.788 24.9813V33.3925H64.512C63.924 33.3925 63.42 33.8971 63.42 34.4859V36.8411H75.852V34.4859C75.852 33.8971 75.348 33.3925 74.76 33.3925H71.736V24.9813C71.736 22.1214 70.308 19.4299 67.956 17.7476L64.848 15.5607L66.024 4.79434C66.108 4.20555 65.688 3.61677 65.016 3.61677L62.16 3.28032C61.572 3.19621 60.984 3.61677 60.984 4.28966L58.38 27.5046C58.296 28.0093 58.716 28.514 59.304 28.5981Z" fill="black"/>
<path d="M18.564 20.6075C23.2496 20.6075 27.048 16.804 27.048 12.1121C27.048 7.42031 23.2496 3.61682 18.564 3.61682C13.8784 3.61682 10.08 7.42031 10.08 12.1121C10.08 16.804 13.8784 20.6075 18.564 20.6075Z" fill="black"/>
<path d="M29.484 58.6261H16.464C13.524 58.6261 11.088 56.5233 10.668 53.6635L7.30803 31.9626C7.05603 30.5327 5.79603 29.6074 4.36803 29.7757C2.94003 30.028 2.01603 31.2897 2.18403 32.7196L5.54403 54.4205C6.38403 59.8878 11.004 63.757 16.464 63.757H18.396V75.4486H15.708C14.28 75.4486 13.104 76.6261 13.104 78.056C13.104 79.486 14.28 80.6635 15.708 80.6635H26.208C27.636 80.6635 28.812 79.486 28.812 78.056C28.812 76.6261 27.636 75.4486 26.208 75.4486H23.52V63.8411H29.4C30.828 63.8411 32.004 62.6635 32.004 61.2336C32.088 59.8037 30.912 58.6261 29.484 58.6261Z" fill="black"/>
<path d="M41.748 51.3924C41.496 49.4579 39.984 48.028 37.884 47.9438H27.972L26.964 34.2336C29.736 35.9158 32.928 36.841 36.12 36.841H43.176C44.94 36.841 46.368 35.4111 46.368 33.6448C46.368 31.8784 44.94 30.4485 43.176 30.4485H36.12C33.852 30.4485 31.668 29.7756 29.82 28.5139L23.352 24.2242C22.176 23.3831 20.748 22.8784 19.152 22.8784H17.976C15.708 22.8784 13.608 23.8878 12.096 25.57C10.584 27.2522 9.99601 29.5233 10.248 31.7943L13.44 52.4018C13.692 54.2522 15.372 55.6822 17.304 55.6822H34.356L36.624 76.9625C36.876 78.9812 38.556 80.4111 40.488 80.4111C40.656 80.4111 40.74 80.4111 40.908 80.4111C43.008 80.1588 44.604 78.3083 44.352 76.1214L41.748 51.3924Z" fill="black"/>
<path d="M79.296 39.9532H35.868C34.44 39.9532 33.264 41.1308 33.264 42.5607C33.264 43.9906 34.44 45.1682 35.868 45.1682H48.804V78.3084C48.804 79.7383 49.98 80.9159 51.408 80.9159H79.296C80.724 80.9159 81.9 79.7383 81.9 78.3084V42.5607C81.9 41.1308 80.724 39.9532 79.296 39.9532Z" fill="black"/>
</svg>
